<svg width="20" height="20" viewBox="0 0 20 20" fill="none" xmlns="http://www.w3.org/2000/svg">
<path d="M9.99967 8.33329H10.008M9.99967 11.6666H10.008M9.99967 4.99996H10.008M13.333 8.33329H13.3413M13.333 11.6666H13.3413M13.333 4.99996H13.3413M6.66634 8.33329H6.67467M6.66634 11.6666H6.67467M6.66634 4.99996H6.67467M7.49967 18.3333V15.8333C7.49967 15.6123 7.58747 15.4003 7.74375 15.244C7.90003 15.0878 8.11199 15 8.33301 15H11.6663C11.8874 15 12.0993 15.0878 12.2556 15.244C12.4119 15.4003 12.4997 15.6123 12.4997 15.8333V18.3333M4.99967 1.66663H14.9997C15.9201 1.66663 16.6663 2.41282 16.6663 3.33329V16.6666C16.6663 17.5871 15.9201 18.3333 14.9997 18.3333H4.99967C4.0792 18.3333 3.33301 17.5871 3.33301 16.6666V3.33329C3.33301 2.41282 4.0792 1.66663 4.99967 1.66663Z" stroke="white" stroke-width="1.66667" stroke-linecap="round" stroke-linejoin="round"/>
</svg>
