<svg width="24" height="120" viewBox="0 0 24 120" fill="none" xmlns="http://www.w3.org/2000/svg">
<path d="M15.7549 14.2549H14.9649L14.6849 13.9849C15.6649 12.8449 16.2549 11.3649 16.2549 9.75488C16.2549 6.16488 13.3449 3.25488 9.75488 3.25488C6.16488 3.25488 3.25488 6.16488 3.25488 9.75488C3.25488 13.3449 6.16488 16.2549 9.75488 16.2549C11.3649 16.2549 12.8449 15.6649 13.9849 14.6849L14.2549 14.9649V15.7549L19.2549 20.7449L20.7449 19.2549L15.7549 14.2549ZM9.75488 14.2549C7.26488 14.2549 5.25488 12.2449 5.25488 9.75488C5.25488 7.26488 7.26488 5.25488 9.75488 5.25488C12.2449 5.25488 14.2549 7.26488 14.2549 9.75488C14.2549 12.2449 12.2449 14.2549 9.75488 14.2549Z" fill="white"/>
<path d="M4 58C2.9 58 2 57.1 2 56V52C2 50.9 2.9 50 4 50H8C9.1 50 10 50.9 10 52" stroke="white" stroke-width="2" stroke-linecap="round" stroke-linejoin="round"/>
<path d="M10 64C8.9 64 8 63.1 8 62V58C8 56.9 8.9 56 10 56H14C15.1 56 16 56.9 16 58" stroke="white" stroke-width="2" stroke-linecap="round" stroke-linejoin="round"/>
<path d="M20 62H16C14.8954 62 14 62.8954 14 64V68C14 69.1046 14.8954 70 16 70H20C21.1046 70 22 69.1046 22 68V64C22 62.8954 21.1046 62 20 62Z" stroke="white" stroke-width="2" stroke-linecap="round" stroke-linejoin="round"/>
<path d="M14.5 98H6C5.46957 98 4.96086 98.2107 4.58579 98.5858C4.21071 98.9609 4 99.4696 4 100V116C4 116.53 4.21071 117.039 4.58579 117.414C4.96086 117.789 5.46957 118 6 118H18C18.5304 118 19.0391 117.789 19.4142 117.414C19.7893 117.039 20 116.53 20 116V103.5L14.5 98Z" stroke="white" stroke-width="2" stroke-linecap="round" stroke-linejoin="round"/>
<path d="M14 98V104H20" stroke="white" stroke-width="2" stroke-linecap="round" stroke-linejoin="round"/>
<path d="M16 109H8" stroke="white" stroke-width="2" stroke-linecap="round" stroke-linejoin="round"/>
<path d="M16 113H8" stroke="white" stroke-width="2" stroke-linecap="round" stroke-linejoin="round"/>
<path d="M10 105H8" stroke="white" stroke-width="2" stroke-linecap="round" stroke-linejoin="round"/>
</svg>
