<svg width="34" height="31" viewBox="0 0 34 31" fill="none" xmlns="http://www.w3.org/2000/svg">
<path d="M16.5234 3.02344L33.0469 15.6094L31.2188 18L28.5469 15.9609V30.0234H18V21.0234H15.0469V30.0234H4.5V15.9609L1.82812 18L0 15.6094L4.5 12.1641V7.52344H7.52344V9.91406L16.5234 3.02344ZM13.5 0H10.5469C10.5469 0.421875 10.3828 0.796875 10.0547 1.125C9.77344 1.40625 9.42188 1.54688 9 1.54688C8.20312 1.54688 7.45312 1.75781 6.75 2.17969C6.09375 2.55469 5.55469 3.09375 5.13281 3.79688C4.71094 4.45312 4.5 5.20312 4.5 6.04688H7.52344C7.52344 5.625 7.66406 5.27344 7.94531 4.99219C8.27344 4.66406 8.625 4.5 9 4.5C9.84375 4.5 10.5938 4.3125 11.25 3.9375C11.9531 3.51562 12.4922 2.97656 12.8672 2.32031C13.2891 1.61719 13.5 0.84375 13.5 0Z" fill="white"/>
</svg>
