<svg width="18" height="18" viewBox="0 0 18 18" fill="none" xmlns="http://www.w3.org/2000/svg">
<g clip-path="url(#clip0_7945_38973)">
<path d="M6.66492 2.63721C6.8009 2.61588 6.9406 2.63649 7.06531 2.6958C7.19012 2.75519 7.29543 2.85094 7.36511 2.97217L7.36414 2.97314C7.44143 3.10659 7.51502 3.24202 7.58484 3.37939C8.50195 3.27867 9.42748 3.27884 10.3446 3.37939C10.4152 3.23796 10.4896 3.09696 10.5614 2.97217L10.5643 2.96729C10.6364 2.84461 10.7448 2.74867 10.8729 2.69092L10.9706 2.65479C11.0667 2.62812 11.1676 2.62449 11.2665 2.64111L11.2675 2.64014C11.2691 2.64042 11.2706 2.64181 11.2723 2.64209C11.2751 2.64258 11.2784 2.64157 11.2811 2.64209L11.2802 2.64307C12.4278 2.83622 13.5253 3.17287 14.5487 3.62939L14.5477 3.63037C14.6615 3.68058 14.7581 3.7618 14.829 3.86475L14.8309 3.86377C16.646 6.46141 17.5511 9.41436 17.2147 12.8042L17.2137 12.811C17.2029 12.9089 17.1712 13.0035 17.121 13.0874C17.0708 13.1712 17.0034 13.2432 16.9237 13.2983L16.9227 13.2974C15.7032 14.1745 14.3436 14.8423 12.9003 15.272L12.8993 15.2729C12.7656 15.3125 12.6226 15.3098 12.4901 15.2661C12.3577 15.2224 12.2406 15.1389 12.1561 15.0259L12.1542 15.0229C11.847 14.6064 11.5664 14.1655 11.3202 13.7007L11.3182 13.6987C9.76506 14.0801 8.16465 14.0781 6.60339 13.6948L6.60437 13.6958C6.36183 14.1629 6.08036 14.6094 5.76257 15.0298L5.75671 15.0376L5.75085 15.0444C5.6644 15.152 5.54737 15.2301 5.41687 15.27C5.28762 15.3095 5.14986 15.3097 5.02039 15.271V15.272C3.57576 14.84 2.21461 14.1696 0.994019 13.2905L0.9823 13.2827C0.908294 13.2268 0.845982 13.1559 0.799683 13.0747C0.753418 12.9935 0.723982 12.9034 0.713745 12.8101L0.712769 12.8013C0.43114 9.8711 1.00981 6.89443 3.09167 3.8667H3.09265C3.16413 3.76232 3.26243 3.68025 3.37683 3.62939L3.7655 3.4624C4.68097 3.08733 5.65103 2.8069 6.65906 2.63818L6.66492 2.63721ZM6.41687 8.66162C6.05201 8.66162 5.67092 8.99773 5.67078 9.53369C5.67078 10.0656 6.06081 10.4067 6.41687 10.4067C6.78171 10.4066 7.16296 10.0697 7.16296 9.53369V9.5249C7.17059 9.00745 6.79225 8.6618 6.41687 8.66162ZM11.5233 8.66162C11.158 8.66162 10.7774 8.99753 10.7772 9.53369C10.7772 10.0658 11.1668 10.4067 11.5233 10.4067C11.8927 10.4065 12.2694 10.0716 12.2694 9.53369V9.5249C12.277 9.0075 11.8987 8.66186 11.5233 8.66162Z" stroke="white" stroke-width="1.27002"/>
</g>
<defs>
<clipPath id="clip0_7945_38973">
<rect width="17.9297" height="17.9297" fill="white"/>
</clipPath>
</defs>
</svg>
