<svg width="17" height="17" viewBox="0 0 17 17" fill="none" xmlns="http://www.w3.org/2000/svg">
<path d="M5.8725 12.84L6.6225 9.75H2.25C2.01713 9.75 1.78746 9.69578 1.57918 9.59164C1.3709 9.4875 1.18972 9.33629 1.05 9.15C0.910279 8.96371 0.815852 8.74744 0.774195 8.51833C0.732539 8.28922 0.744797 8.05355 0.81 7.83L2.5575 1.83C2.64838 1.51843 2.83786 1.24473 3.0975 1.05C3.35714 0.855267 3.67294 0.75 3.9975 0.75H14.1225C14.5203 0.75 14.9019 0.908035 15.1832 1.18934C15.4645 1.47064 15.6225 1.85218 15.6225 2.25V8.25C15.6225 8.64782 15.4645 9.02935 15.1832 9.31066C14.9019 9.59196 14.5203 9.75 14.1225 9.75H12.0525C11.7734 9.75015 11.4999 9.82814 11.2628 9.97521C11.0256 10.1223 10.8342 10.3326 10.71 10.5825L8.1225 15.75C7.76882 15.7456 7.4207 15.6614 7.10415 15.5036C6.7876 15.3457 6.5108 15.1184 6.29445 14.8386C6.07809 14.5588 5.92776 14.2337 5.8547 13.8876C5.78163 13.5415 5.78772 13.1834 5.8725 12.84Z" fill="#D9D9D9" stroke="#828282" stroke-width="1.5" stroke-linecap="round" stroke-linejoin="round"/>
<rect x="10.75" y="0.75" width="1.6" height="9" fill="#828282"/>
</svg>
