<svg width="18" height="18" viewBox="0 0 18 18" fill="none" xmlns="http://www.w3.org/2000/svg">
<g clip-path="url(#clip0_7945_38285)">
<path d="M12.75 10.5V1.5" stroke="#828282" stroke-width="1.5" stroke-linecap="round" stroke-linejoin="round"/>
<path d="M6.75 13.59L7.5 10.5H3.1275C2.89463 10.5 2.66497 10.4458 2.45668 10.3416C2.2484 10.2375 2.06722 10.0863 1.9275 9.9C1.78778 9.71371 1.69335 9.49744 1.6517 9.26833C1.61004 9.03922 1.6223 8.80355 1.6875 8.58L3.435 2.58C3.52588 2.26843 3.71536 1.99473 3.975 1.8C4.23465 1.60527 4.55045 1.5 4.875 1.5H15C15.3978 1.5 15.7794 1.65804 16.0607 1.93934C16.342 2.22064 16.5 2.60218 16.5 3V9C16.5 9.39782 16.342 9.77936 16.0607 10.0607C15.7794 10.342 15.3978 10.5 15 10.5H12.93C12.6509 10.5001 12.3775 10.5781 12.1403 10.7252C11.9031 10.8723 11.7117 11.0826 11.5875 11.3325L9 16.5C8.64632 16.4956 8.2982 16.4114 7.98165 16.2536C7.6651 16.0957 7.38831 15.8684 7.17195 15.5886C6.95559 15.3088 6.80526 14.9837 6.7322 14.6376C6.65913 14.2915 6.66522 13.9334 6.75 13.59Z" stroke="#828282" stroke-width="1.5" stroke-linecap="round" stroke-linejoin="round"/>
</g>
<defs>
<clipPath id="clip0_7945_38285">
<rect width="18" height="18" fill="white"/>
</clipPath>
</defs>
</svg>
