<svg width="17" height="17" viewBox="0 0 17 17" fill="none" xmlns="http://www.w3.org/2000/svg">
<path d="M10.5 3.66L9.75 6.75H14.1225C14.3554 6.75 14.585 6.80422 14.7933 6.90836C15.0016 7.0125 15.1828 7.16371 15.3225 7.35C15.4622 7.53629 15.5566 7.75256 15.5983 7.98167C15.64 8.21078 15.6277 8.44645 15.5625 8.67L13.815 14.67C13.7241 14.9816 13.5346 15.2553 13.275 15.45C13.0154 15.6447 12.6996 15.75 12.375 15.75H2.25C1.85218 15.75 1.47064 15.592 1.18934 15.3107C0.908035 15.0294 0.75 14.6478 0.75 14.25V8.25C0.75 7.85218 0.908035 7.47064 1.18934 7.18934C1.47064 6.90804 1.85218 6.75 2.25 6.75H4.32C4.59906 6.74985 4.87255 6.67186 5.10972 6.52479C5.34688 6.37772 5.53832 6.16741 5.6625 5.9175L8.25 0.75C8.60368 0.75438 8.9518 0.838627 9.26835 0.996447C9.5849 1.15427 9.8617 1.38158 10.0781 1.6614C10.2944 1.94122 10.4447 2.26632 10.5178 2.6124C10.5909 2.95848 10.5848 3.3166 10.5 3.66Z" fill="#D9D9D9" stroke="#828282" stroke-width="1.5" stroke-linecap="round" stroke-linejoin="round"/>
</svg>
