<svg width="27" height="27" viewBox="0 0 27 27" fill="none" xmlns="http://www.w3.org/2000/svg">
<path d="M4.99219 14.5547C6.30469 15.8672 7.89844 16.5234 9.77344 16.5234C11.6484 16.5234 13.2422 15.8672 14.5547 14.5547C15.8672 13.2422 16.5234 11.6484 16.5234 9.77344C16.5234 7.89844 15.8672 6.30469 14.5547 4.99219C13.2422 3.67969 11.6484 3.02344 9.77344 3.02344C7.89844 3.02344 6.30469 3.67969 4.99219 4.99219C3.67969 6.30469 3.02344 7.89844 3.02344 9.77344C3.02344 11.6484 3.67969 13.2422 4.99219 14.5547ZM18.7734 16.5234L26.2266 23.9766L23.9766 26.2266L16.5234 18.7734V17.5781L16.1016 17.1562C14.3203 18.7031 12.2109 19.4766 9.77344 19.4766C7.05469 19.4766 4.73438 18.5391 2.8125 16.6641C0.9375 14.7891 0 12.4922 0 9.77344C0 7.05469 0.9375 4.75781 2.8125 2.88281C4.73438 0.960938 7.05469 0 9.77344 0C12.4922 0 14.7891 0.960938 16.6641 2.88281C18.5391 4.75781 19.4766 7.05469 19.4766 9.77344C19.4766 10.7578 19.2422 11.8828 18.7734 13.1484C18.3047 14.3672 17.7656 15.3516 17.1562 16.1016L17.5781 16.5234H18.7734Z" fill="white"/>
</svg>
