<svg width="18" height="18" viewBox="0 0 18 18" fill="none" xmlns="http://www.w3.org/2000/svg">
<g clip-path="url(#clip0_7945_38974)">
<path d="M16.1219 1.93994C16.3883 1.9632 16.7417 2.06071 17.0057 2.37158C17.2688 2.68144 17.3447 3.08838 17.3085 3.521L17.3094 3.52197C17.2871 3.83477 17.1818 4.49852 17.0565 5.29541C16.9279 6.11377 16.77 7.1183 16.6327 8.16064L16.6317 8.17334L15.6844 14.3784C15.6842 14.3808 15.6848 14.3835 15.6844 14.3862C15.6831 14.3985 15.6812 14.4143 15.6786 14.4331C15.6733 14.4708 15.6648 14.5217 15.6522 14.5815C15.6274 14.6993 15.5833 14.8622 15.5067 15.0366C15.3577 15.3762 15.0365 15.8557 14.4003 15.9976C13.8216 16.1265 13.2055 15.9 12.8094 15.7144C12.3978 15.5214 12.0492 15.2861 11.9012 15.1704L11.7587 15.0757C11.6654 15.0142 11.5401 14.9321 11.3885 14.8325C11.0869 14.6344 10.6876 14.3708 10.2616 14.0835C9.42304 13.518 8.43813 12.8313 7.9071 12.3628V12.3618C7.72004 12.1996 7.44599 11.899 7.37781 11.4692C7.30116 10.9856 7.5095 10.531 7.92761 10.1558L9.92664 8.24561L6.31238 10.7056L6.30261 10.7124L6.29187 10.7192L6.29089 10.7202L6.28894 10.7212C6.28813 10.7217 6.28688 10.7216 6.28601 10.7222C6.28392 10.7234 6.28161 10.7256 6.27917 10.7271C6.27438 10.7299 6.26867 10.7333 6.26257 10.7368C6.25011 10.7439 6.23455 10.752 6.21667 10.7612C6.18068 10.7798 6.1338 10.8022 6.07605 10.8257C5.9602 10.8727 5.80086 10.9248 5.60046 10.9604C5.1962 11.0323 4.64024 11.0359 3.95105 10.8286L3.94714 10.8276L1.37585 10.0347L1.29578 10.0093L1.22546 9.96533L1.56335 9.42627L1.22449 9.96533L1.22253 9.96338C1.2216 9.96279 1.22065 9.9621 1.2196 9.96143C1.21737 9.96 1.21452 9.95833 1.21179 9.95654C1.20638 9.953 1.19949 9.94881 1.19226 9.94385C1.17776 9.93388 1.15929 9.92064 1.13855 9.90479C1.09754 9.8734 1.04284 9.82792 0.985229 9.76904C0.880965 9.66247 0.708683 9.45284 0.661987 9.15186C0.608279 8.80552 0.740413 8.4804 0.995972 8.22412C1.22183 7.99766 1.55114 7.81468 1.97351 7.65576C5.94614 5.78423 10.8356 3.87115 15.1259 2.09521L15.1376 2.09033H15.1385L15.1395 2.08936H15.1405L15.1425 2.08838C15.1444 2.08763 15.1476 2.08645 15.1503 2.08545C15.1555 2.0835 15.1621 2.08139 15.1698 2.07861C15.186 2.07281 15.208 2.06465 15.2343 2.05615C15.2863 2.03927 15.3586 2.01771 15.4442 1.99756C15.6082 1.95898 15.8567 1.91681 16.1219 1.93994Z" stroke="white" stroke-width="1.27279"/>
</g>
<defs>
<clipPath id="clip0_7945_38974">
<rect width="17.9688" height="17.9688" fill="white"/>
</clipPath>
</defs>
</svg>
