<svg width="517" height="67" viewBox="0 0 517 67" fill="none" xmlns="http://www.w3.org/2000/svg">
<g clip-path="url(#clip0_13_1060)">
<path d="M61 0.630859H5C2.23858 0.630859 0 2.86944 0 5.63086V61.6309C0 64.3923 2.23858 66.6309 5 66.6309H61C63.7614 66.6309 66 64.3923 66 61.6309V5.63086C66 2.86944 63.7614 0.630859 61 0.630859Z" fill="black"/>
<path d="M38.387 5.63086H27.0781V16.829H38.387V5.63086Z" fill="white"/>
<path d="M49.6995 5.63086H38.3906V16.829H49.6995V5.63086Z" fill="white"/>
<path d="M60.9963 5.63086H49.6875V16.829H60.9963V5.63086Z" fill="white"/>
<path d="M38.387 28.0312H27.0781V39.2295H38.387V28.0312Z" fill="white"/>
<path d="M49.6995 28.0312H38.3906V39.2295H49.6995V28.0312Z" fill="white"/>
<path d="M60.9963 28.0312H49.6875V39.2295H60.9963V28.0312Z" fill="white"/>
<path d="M38.387 50.4336H27.0781V61.6318H38.387V50.4336Z" fill="white"/>
<path d="M49.6995 50.4336H38.3906V61.6318H49.6995V50.4336Z" fill="white"/>
<path d="M60.9963 50.4336H49.6875V61.6318H60.9963V50.4336Z" fill="white"/>
<path d="M16.3088 5.63086H5V16.829H16.3088V5.63086Z" fill="#B2FF00"/>
<path d="M27.0823 16.8301H15.7734V28.0283H27.0823V16.8301Z" fill="#B2FF00"/>
<path d="M16.3088 28.0312H5V39.2295H16.3088V28.0312Z" fill="#B2FF00"/>
<path d="M27.0823 39.2266H15.7734V50.4248H27.0823V39.2266Z" fill="#B2FF00"/>
<path d="M16.3088 50.4336H5V61.6318H16.3088V50.4336Z" fill="#B2FF00"/>
<path d="M119.349 54.1574V65.5196H78V3.76216H119.349V15.1244H90.7695V28.6013H115.486V39.8918H90.7695V54.1215H119.349V54.1574ZM147.75 65.5196C143.493 65.5196 140.238 64.4084 137.985 62.222C135.803 59.9639 134.694 56.7739 134.694 52.6161V28.8522H128.041V19.1746H131.403C133.084 19.1746 134.265 18.7803 134.944 17.9918C135.624 17.2033 135.946 15.9846 135.946 14.3V6.62959H147.141V19.1746H156.298V28.8522H147.141V55.8061H155.619V65.4837H147.714L147.75 65.5196ZM165.169 65.5196V0.0703125H177.617V26.9525H178.046C179.012 24.2643 180.514 22.1137 182.589 20.5366C184.735 18.9237 187.489 18.0993 190.923 18.0993C194.357 18.0993 199.257 19.7122 201.761 22.9023C204.3 26.0923 205.552 30.6085 205.552 36.4509V65.5196H193.105V37.4545C193.105 34.3004 192.532 31.9706 191.424 30.4652C190.35 28.9598 188.634 28.207 186.201 28.207C183.769 28.207 181.73 28.8164 180.049 30.0709C178.439 31.2895 177.617 33.0459 177.617 35.304V65.5554H165.169V65.5196ZM218.894 65.5196V3.76216H242.931C247.688 3.76216 251.444 5.12419 254.198 7.8841C256.952 10.644 258.312 14.4433 258.312 19.2463C258.312 24.0493 257.382 26.2715 255.522 28.5296C253.733 30.7161 251.515 32.1139 248.869 32.7591V33.1892C252.052 33.5835 254.806 35.0531 257.095 37.6696C259.456 40.2144 260.637 43.6912 260.637 48.2074C260.637 52.7236 259.206 57.5624 256.344 60.7525C253.554 63.9425 249.763 65.5554 245.006 65.5554H218.858L218.894 65.5196ZM242.43 31.2179C245.792 31.2179 248.368 30.3218 250.156 28.5296C252.016 26.7375 252.946 24.336 252.946 21.361V18.0635C252.946 15.0885 252.016 12.687 250.156 10.8949C248.368 9.10272 245.792 8.20665 242.43 8.20665H223.938V31.2179H242.43ZM243.789 61.0392C247.474 61.0392 250.335 60.0356 252.267 57.9925C254.27 55.9853 255.307 53.2613 255.307 49.892V46.5228C255.307 43.2611 254.305 40.6087 252.267 38.6015C250.299 36.5943 247.474 35.5549 243.789 35.5549H223.938V61.0034H243.789V61.0392ZM290.683 66.6307C286.712 66.6307 283.243 65.6988 280.274 63.835C277.376 61.9353 275.087 59.1754 273.478 55.5911C271.868 52.0068 271.045 47.7415 271.045 42.8668C271.045 37.9922 271.868 33.7627 273.478 30.2142C275.087 26.6299 277.376 23.9059 280.274 22.0421C283.243 20.1424 286.712 19.1746 290.683 19.1746C294.653 19.1746 298.122 20.1424 301.091 22.0421C304.06 23.9059 306.349 26.6299 307.995 30.2142C309.604 33.7627 310.427 37.9563 310.427 42.8668C310.427 47.7773 309.604 52.0068 307.995 55.5911C306.385 59.1754 304.06 61.9353 301.091 63.835C298.122 65.6988 294.653 66.6307 290.683 66.6307ZM290.683 62.3295C295.225 62.3295 298.766 60.8958 301.377 58.0284C304.024 55.1251 305.312 51.0032 305.312 45.7343V40.1069C305.312 34.838 303.989 30.7519 301.377 27.8844C298.802 24.9453 295.225 23.5116 290.683 23.5116C286.14 23.5116 282.635 24.9812 279.988 27.8844C277.412 30.7519 276.125 34.838 276.125 40.1069V45.7343C276.125 51.0032 277.412 55.1251 279.988 58.0284C282.635 60.8958 286.176 62.3295 290.683 62.3295ZM338.041 66.5232C333.212 66.5232 329.456 65.0178 326.773 62.0428C324.091 59.0678 322.732 54.8384 322.732 49.3186V20.2499H327.525V48.3867C327.525 57.5983 331.423 62.1862 339.221 62.1862C347.019 62.1862 345.624 61.3259 348.056 59.5696C350.453 57.7775 351.669 55.2327 351.669 51.9709V20.214H356.462V65.4479H351.669V58.3868H351.418C350.345 60.86 348.736 62.8313 346.554 64.3009C344.372 65.7705 341.546 66.4874 338.076 66.4874L338.041 66.5232ZM378.46 65.5196C376.707 65.5196 375.384 65.0536 374.418 64.0858C373.452 63.1181 372.987 61.8278 372.987 60.2148V0.0703125H377.78V61.326H384.755V65.5554H378.46V65.5196ZM411.439 66.6307C405.716 66.6307 401.209 64.5518 397.918 60.394C394.592 56.1646 392.946 50.358 392.946 42.8668C392.946 35.3756 394.592 29.6766 397.918 25.5188C401.209 21.2893 405.751 19.2105 411.439 19.2105C417.126 19.2105 417.734 19.9273 420.095 21.3969C422.491 22.8664 424.244 24.8737 425.317 27.4543H425.639V0.0703125H430.432V65.5196H425.639V58.351H425.317C424.101 60.9317 422.277 62.9389 419.952 64.4084C417.663 65.878 414.837 66.5948 411.475 66.5948L411.439 66.6307ZM412.548 62.3295C416.196 62.3295 419.272 61.3618 421.812 59.4621C424.387 57.4907 425.675 54.9459 425.675 51.7917V33.7627C425.675 31.7913 425.067 30.035 423.922 28.4579C422.742 26.8808 421.132 25.6622 419.129 24.8378C417.126 23.9417 414.908 23.4758 412.583 23.4758C408.112 23.4758 404.571 24.9812 401.996 27.9562C399.456 30.8594 398.204 34.8021 398.204 39.7485V46.0569C398.204 51.0032 399.456 54.9459 401.996 57.9209C404.571 60.8242 408.112 62.2937 412.583 62.2937L412.548 62.3295ZM463.018 66.6307C459.047 66.6307 455.578 65.6988 452.609 63.835C449.64 61.9353 447.351 59.2112 445.705 55.6627C444.132 52.0784 443.345 47.8132 443.345 42.8668C443.345 35.519 445.097 29.7483 448.567 25.5905C452.108 21.361 456.865 19.2821 462.875 19.2821C468.884 19.2821 470.028 20.2141 472.89 22.0779C475.751 23.9417 477.933 26.5583 479.436 29.9275C481.009 33.2251 481.796 37.1319 481.796 41.5406V43.7271H448.424V46.0927C448.424 51.039 449.747 54.9817 452.358 57.9567C455.005 60.9317 458.618 62.4371 463.304 62.4371C467.99 62.4371 469.349 61.6485 471.71 60.0714C474.07 58.4227 475.859 56.1287 477.075 53.1537L480.616 55.5194C479.221 58.9603 476.968 61.6844 473.891 63.6916C470.851 65.6629 467.238 66.6307 463.053 66.6307H463.018ZM448.388 39.9994H476.646V39.3184C476.646 34.4796 475.394 30.6085 472.854 27.7052C470.315 24.802 466.988 23.3324 462.839 23.3324C458.69 23.3324 454.97 24.8378 452.323 27.8844C449.676 30.8594 448.388 34.8021 448.388 39.6768V39.9994ZM494.745 65.5196V20.2858H499.538V28.3863H499.967C500.933 26.0206 502.507 24.0851 504.689 22.5797C506.942 21.0743 509.839 20.3216 513.452 20.3216H516.635V25.0528H512.594C508.766 25.0528 505.654 25.9131 503.186 27.6694C500.79 29.4257 499.574 31.7555 499.574 34.6588V65.5913H494.781L494.745 65.5196Z" fill="white"/>
</g>
<defs>
<clipPath id="clip0_13_1060">
<rect width="517" height="67" fill="white"/>
</clipPath>
</defs>
</svg>
