<svg width="49" height="49" viewBox="0 0 49 49" fill="none" xmlns="http://www.w3.org/2000/svg">
<g clip-path="url(#clip0_7196_1863)">
<path d="M13.0109 1.80169C13.1422 1.31656 13.186 0.948156 13.5617 0.579748C13.8936 0.251465 14.459 0.0909702 14.9186 0.0544942C16.9175 -0.102352 19.117 0.178513 21.1341 0.0544942C22.243 0.142037 22.8558 0.711062 23.0199 1.80899L25.9635 1.80169C26.0584 0.703767 26.7587 0.138389 27.8274 0.0544942C29.8373 -0.102352 32.055 0.178513 34.0867 0.0544942C34.7433 0.105561 35.4436 0.401016 35.7354 1.03205C35.8376 1.25455 35.7938 1.77616 36.0528 1.80899L38.8505 1.80169C38.9417 1.76887 39.0183 1.16701 39.0803 1.02476C39.3466 0.415606 40.0651 0.116503 40.6962 0.0581418C42.7279 -0.124238 45.0222 0.193103 47.0831 0.0581418C48.1701 0.174865 48.7574 0.791309 48.8559 1.87465C48.7063 3.91365 49.0638 6.25541 48.8522 8.25429C48.8048 8.70295 48.6479 9.16255 48.3342 9.48718C47.9731 9.85924 47.6157 9.91031 47.1342 10.027L47.1159 12.9342C47.1488 13.0326 47.7287 13.0983 47.8856 13.1713C48.5093 13.474 48.8084 14.1598 48.8631 14.82C49.0346 16.8663 48.7391 19.1679 48.8486 21.2397C48.7428 21.6665 48.6662 22.075 48.3525 22.407C48.0023 22.7754 47.5755 22.8447 47.1086 22.9614L47.1159 25.905C47.5792 25.9743 48.0205 26.0911 48.3525 26.4376C48.6406 26.7403 48.8267 27.3093 48.8631 27.7215C49.0419 29.7642 48.7355 32.0731 48.8486 34.1413C48.7501 34.776 48.4765 35.4107 47.8528 35.6842C47.6886 35.7572 47.24 35.79 47.1524 35.8593C47.1087 35.8921 47.1086 35.9396 47.1086 35.9906L47.1159 38.8102C47.6047 38.9452 47.9658 38.9817 48.3379 39.361C48.6589 39.6893 48.8194 40.1744 48.8595 40.6304C49.0419 42.6475 48.7245 44.9272 48.8595 46.9736C48.761 48.0569 48.1774 48.6733 47.0868 48.7901C45.0259 48.6442 42.6878 48.9907 40.6633 48.7864C39.6347 48.6843 39.0183 48.1225 38.9088 47.083L38.7775 47.0392L35.9798 47.0465C35.8558 47.0866 35.812 47.6629 35.7427 47.8161C35.4509 48.4435 34.7506 48.7426 34.094 48.7937C32.0623 48.6697 29.8446 48.9506 27.8347 48.7937C27.1344 48.739 26.4085 48.4326 26.1313 47.7432C26.0401 47.517 26.0474 47.2654 25.9526 47.0429L23.009 47.0502C22.9214 48.1262 22.1992 48.7244 21.145 48.7974C19.1279 48.6733 16.9284 48.9542 14.9295 48.7974C14.2876 48.7463 13.4814 48.4362 13.2152 47.7979C13.1677 47.6848 13.0802 47.0611 13 47.0429L10.1256 47.0502C10.0162 47.0866 9.96151 47.652 9.88491 47.8161C9.60039 48.4362 8.92559 48.7353 8.27996 48.7937C6.24825 48.9761 3.95391 48.6587 1.89302 48.7937C0.722139 48.6843 0.222418 48.0131 0.0765144 46.8933C0.215123 44.9236 -0.105865 42.7095 0.0765144 40.769C0.0947524 40.5611 0.233361 39.9665 0.317256 39.7841C0.587178 39.1932 1.25834 38.9124 1.86384 38.8175L1.87113 35.9979C1.87113 35.9469 1.87113 35.8994 1.82736 35.8666C1.74347 35.8046 1.28752 35.7608 1.12702 35.6915C0.466807 35.4143 0.171352 34.6884 0.0874572 34.0173C-0.149637 32.1242 0.240656 29.797 0.0765144 27.8601C0.182295 27.1561 0.379265 26.4376 1.07231 26.0983C1.2328 26.0217 1.82736 25.9524 1.86384 25.8394L1.87113 23.0854C1.87113 23.0344 1.87113 22.9906 1.82736 22.9541C1.73252 22.8739 1.25469 22.8374 1.07231 22.7462C0.404798 22.4216 0.134876 21.641 0.0765144 20.9443C-0.0839799 19.0257 0.200533 16.8882 0.0765144 14.9476C0.182295 14.2254 0.393855 13.4631 1.12702 13.1567C1.27293 13.0947 1.83101 13.029 1.86384 12.9305L1.8456 10.0234C0.73673 9.88842 0.215123 9.23915 0.0874572 8.15946C-0.135046 6.24447 0.233361 3.95378 0.0728668 1.99866C0.196885 0.882499 0.671073 0.185808 1.8456 0.0617894C3.91744 0.174865 6.17895 -0.106 8.2289 0.0544942C8.89276 0.105561 9.58216 0.393721 9.87396 1.03205C9.95056 1.19619 10.0016 1.76157 10.1147 1.79805H13.0109V1.80169ZM8.33468 1.80534H1.81642V8.21417L1.88208 8.27983H8.29091V14.7105H1.88208L1.81642 14.7762V21.1631L1.88208 21.2288H21.2399V27.6157H1.88208L1.81642 27.6814V34.0683L1.88208 34.134H8.29091V40.5647H1.88208L1.81642 40.6304V47.0392H8.33468V40.6085H14.7654V47.0392H21.2836V27.6595H27.6706V47.0392H34.1889V40.6085H40.6196V47.0392H47.0941V40.5647H40.6852L40.6196 40.4991V34.1997L40.6852 34.134H47.0941V27.6157H27.7144V21.2288H47.0941V14.7105H40.6196V8.34548L40.6852 8.27983H47.0941V1.80534H40.6196V8.23606H34.1889V1.80534H27.6706V21.185H21.2836V1.80534H14.7654V8.23606H8.33468V1.80534Z" fill="black"/>
</g>
<defs>
<clipPath id="clip0_7196_1863">
<rect width="48.9106" height="48.8559" fill="white"/>
</clipPath>
</defs>
</svg>
