<svg width="80" height="80" viewBox="0 0 80 80" fill="none" xmlns="http://www.w3.org/2000/svg">
<path d="M21.1274 2.92761C21.3408 2.13931 21.4119 1.54068 22.0224 0.942045C22.5617 0.40861 23.4804 0.147819 24.2272 0.0885488C27.4753 -0.166315 31.0493 0.290069 34.327 0.0885488C36.1288 0.230798 37.1245 1.15542 37.3912 2.93946L42.1744 2.92761C42.3285 1.14357 43.4665 0.224871 45.2031 0.0885488C48.4689 -0.166315 52.0726 0.290069 55.3739 0.0885488C56.4408 0.171528 57.5788 0.651619 58.053 1.677C58.2189 2.03855 58.1478 2.88612 58.5686 2.93946L63.1147 2.92761C63.2629 2.87427 63.3873 1.8963 63.4881 1.66515C63.9208 0.675327 65.0884 0.189309 66.1138 0.0944759C69.4151 -0.201877 73.1433 0.313777 76.4921 0.0944759C78.2583 0.284142 79.2126 1.28581 79.3726 3.04615C79.1296 6.35938 79.7104 10.1645 79.3667 13.4126C79.2896 14.1416 79.0348 14.8884 78.525 15.4159C77.9383 16.0205 77.3574 16.1035 76.575 16.2931L76.5454 21.017C76.5987 21.177 77.5411 21.2837 77.796 21.4022C78.8095 21.8942 79.2956 23.0085 79.3845 24.0813C79.663 27.4064 79.1829 31.1463 79.3607 34.5129C79.1889 35.2064 79.0644 35.8702 78.5547 36.4096C77.9857 37.0082 77.2922 37.1208 76.5335 37.3105L76.5454 42.0936C77.2981 42.2062 78.0153 42.3959 78.5547 42.959C79.0229 43.4509 79.3252 44.3755 79.3845 45.0453C79.6749 48.3644 79.177 52.1163 79.3607 55.4769C79.2007 56.5082 78.7562 57.5395 77.7427 57.9841C77.4759 58.1026 76.7469 58.1559 76.6047 58.2685C76.5335 58.3219 76.5335 58.3989 76.5335 58.4819L76.5454 63.0635C77.3396 63.2828 77.9264 63.3421 78.531 63.9585C79.0525 64.492 79.3133 65.2803 79.3785 66.0211C79.6749 69.2988 79.1592 73.0032 79.3785 76.3283C79.2185 78.0886 78.2702 79.0903 76.498 79.28C73.1492 79.0429 69.3499 79.606 66.0604 79.274C64.389 79.1081 63.3873 78.1953 63.2095 76.5061L62.9961 76.435L58.4501 76.4468C58.2486 76.512 58.1774 77.4485 58.0648 77.6974C57.5907 78.7169 56.4527 79.2029 55.3858 79.2859C52.0844 79.0844 48.4808 79.5408 45.215 79.2859C44.077 79.197 42.8975 78.6991 42.447 77.5789C42.2989 77.2114 42.3107 76.8025 42.1566 76.4409L37.3735 76.4528C37.2312 78.2013 36.0577 79.1733 34.3447 79.2918C31.0671 79.0903 27.4931 79.5467 24.245 79.2918C23.2019 79.2088 21.892 78.705 21.4593 77.6678C21.3823 77.4841 21.24 76.4706 21.1096 76.4409L16.4391 76.4528C16.2613 76.512 16.1724 77.4307 16.0479 77.6974C15.5856 78.705 14.4891 79.1911 13.44 79.2859C10.1386 79.5823 6.41051 79.0666 3.06172 79.2859C1.15914 79.1081 0.347131 78.0175 0.110048 76.1979C0.335277 72.9973 -0.186305 69.3996 0.110048 66.2464C0.139684 65.9085 0.364912 64.9424 0.501234 64.6461C0.939837 63.6859 2.03042 63.2295 3.01431 63.0754L3.02616 58.4938C3.02616 58.4108 3.02616 58.3337 2.95504 58.2804C2.81871 58.1796 2.07783 58.1085 1.81704 57.9959C0.744244 57.5454 0.264152 56.366 0.12783 55.2754C-0.257429 52.1992 0.376766 48.4178 0.110048 45.2705C0.281933 44.1266 0.601994 42.959 1.72814 42.4077C1.98893 42.2833 2.95504 42.1707 3.01431 41.9869L3.02616 37.512C3.02616 37.429 3.02616 37.3579 2.95504 37.2986C2.80093 37.1682 2.02449 37.109 1.72814 36.9608C0.643484 36.4333 0.204881 35.1649 0.110048 34.0328C-0.150742 30.9152 0.311568 27.4419 0.110048 24.2887C0.281933 23.1152 0.625702 21.8764 1.81704 21.3785C2.05412 21.2778 2.96096 21.1711 3.01431 21.0111L2.98467 16.2872C1.18285 16.0679 0.335277 15.0129 0.12783 13.2585C-0.233721 10.1468 0.364912 6.42457 0.104121 3.24767C0.305641 1.43399 1.07616 0.301923 2.98467 0.100403C6.35124 0.284142 10.026 -0.172242 13.357 0.0885488C14.4357 0.171528 15.556 0.639765 16.0301 1.677C16.1546 1.94372 16.2376 2.86241 16.4213 2.92168H21.1274V2.92761ZM13.5289 2.93354H2.93726V13.3474L3.04394 13.4541H13.4578V23.9035H3.04394L2.93726 24.0102V34.3884L3.04394 34.4951H34.4988V44.8734H3.04394L2.93726 44.9801V55.3584L3.04394 55.465H13.4578V65.9145H3.04394L2.93726 66.0211V76.435H13.5289V65.9856H23.9783V76.435H34.57V44.9445H44.9482V76.435H55.5399V65.9856H65.9893V76.435H76.5098V65.9145H66.096L65.9893 65.8078V55.5717L66.096 55.465H76.5098V44.8734H45.0194V34.4951H76.5098V23.9035H65.9893V13.5608L66.096 13.4541H76.5098V2.93354H65.9893V13.3829H55.5399V2.93354H44.9482V34.424H34.57V2.93354H23.9783V13.3829H13.5289V2.93354Z" fill="white"/>
</svg>
