<svg width="159" height="29" viewBox="0 0 159 29" fill="none" xmlns="http://www.w3.org/2000/svg">
<g clip-path="url(#clip0_7945_9991)">
<path d="M79.0587 9.51973C79.1306 9.44786 78.9999 8.29792 79.0064 8.0823C79.026 7.63801 80.0976 4.44952 80.3458 4.1163C80.5484 3.84188 81.5415 2.87488 81.8225 2.69194C82.0446 2.5482 84.0244 1.58773 84.2073 1.54853C84.3902 1.50932 85.5271 1.47012 85.7035 1.50932C86.5399 1.66614 86.5006 2.79648 86.4288 3.45639C86.4092 3.60667 86.2132 3.97256 86.272 4.0379C86.383 4.16857 86.4157 3.97256 86.4484 3.93989C86.664 3.69814 87.337 2.91409 87.5591 2.78341C87.8335 2.6266 88.2909 2.6462 88.5392 2.82915C88.7613 2.99249 89.5258 3.77001 89.7153 3.99869C90.042 4.39072 90.1988 4.74354 89.8263 5.21398C89.7218 5.34465 89.565 5.38385 89.4735 5.48839C88.9508 6.0699 88.6241 6.76901 87.7159 6.62527C87.3696 6.56647 86.6901 5.67134 86.3765 5.37732C85.8995 4.92649 85.318 4.51486 84.8476 4.09017C84.6843 3.93989 84.6255 3.61973 84.3576 3.66547C84.2596 3.69161 82.9855 4.97223 82.9005 5.11597C82.7895 5.30545 81.8682 7.92549 81.8682 8.0823V9.5328H84.6516C85.0371 9.5328 85.4879 10.3365 85.2396 10.7089L88.892 9.53934C89.4605 9.46746 89.7741 9.62428 89.9832 10.1535L90.0616 24.8741C90.0877 24.946 90.5777 25.3511 90.6496 25.3837C90.8195 25.4491 92.2046 25.4687 92.3941 25.4099C92.5183 25.3707 93.0475 24.8153 93.0736 24.6781L93.0344 12.9761C93.0148 12.9369 92.4856 12.4077 92.4464 12.3881C92.1981 12.277 91.7669 12.3881 91.4729 12.3423C90.5973 12.2051 90.4601 11.0421 91.2703 10.6631C91.7603 10.4345 94.1909 9.62428 94.7005 9.54587C94.9684 9.50667 95.2625 9.50667 95.4977 9.65041C95.6087 9.71575 95.8962 10.1143 95.8962 10.1927V11.9568C96.2752 11.6889 96.4843 10.9898 96.8371 10.7481C97.0527 10.5978 99.2611 9.5524 99.4571 9.5328L102.09 9.572C102.371 9.65694 103.887 11.127 103.887 11.3753V12.865C103.887 12.865 103.717 13.0022 103.848 13.061C104.599 12.4665 105.331 11.3688 106.089 10.833C106.494 10.5455 108.35 9.58507 108.787 9.5328C109.277 9.48053 111.133 9.474 111.551 9.59161C112.237 9.79415 113.132 10.4933 113.838 10.7481L116.393 13.2113C116.844 12.5579 117.079 11.3165 117.686 10.82C117.902 10.6435 119.941 9.59814 120.176 9.54587C120.764 9.42826 123.41 9.46093 124.07 9.53934C124.664 9.61121 126.925 10.4149 127.546 10.6827C127.964 10.8592 128.121 11.0617 128.186 11.5321C128.278 12.1855 128.265 13.3485 127.428 13.5053C126.592 13.6621 126.187 12.6102 125.677 12.2313C125.488 12.0875 124.011 11.3361 123.802 11.2839C123.416 11.1858 121.143 11.1793 120.698 11.2447C120.587 11.2577 118.947 12.0744 118.862 12.1528C118.778 12.2313 118.026 13.7014 118.026 13.7928L118.791 15.3479C120.698 16.7984 123.24 16.7461 125.383 17.5301C125.749 17.6674 127.722 18.6736 127.938 18.8892C128.088 19.0394 129.271 21.4047 129.323 21.6595C129.388 21.9731 129.401 22.6918 129.323 22.9989C129.251 23.2668 128.167 25.4687 127.99 25.6647C127.879 25.7888 127.677 25.8999 127.533 25.9848C126.873 26.3899 126.043 26.7036 125.364 27.1087H120.182C118.758 26.4095 117.399 25.8476 116.386 24.5605C116.295 24.5605 115.321 25.6843 115.092 25.8476C114.831 26.0306 112.695 27.1021 112.466 27.1348L108.65 27.1217C107.905 26.697 106.906 26.3573 106.213 25.8738C105.834 25.6059 103.848 23.685 103.573 23.3256C103.462 23.1753 102.371 20.9669 102.339 20.8232L102.325 15.8379L103.573 13.3681C103.377 13.3681 103.279 13.5184 103.064 13.5315C102.365 13.5576 101.901 12.5906 101.456 12.2378C101.012 11.885 100.111 11.6301 99.6139 11.3361C99.4963 11.3296 97.987 12.0483 97.8825 12.1398C97.7453 12.2574 95.9354 14.9558 95.9028 15.1322V24.7565C95.9354 24.9264 96.4385 25.3641 96.5823 25.4099C96.8436 25.4817 97.1964 25.3837 97.4905 25.4425C98.3464 25.6124 98.366 26.8408 97.5493 27.1087H85.4749C84.8803 26.893 84.6516 26.2658 85.0502 25.7431C85.4879 25.1747 86.1282 25.5863 86.5725 25.3837C86.6771 25.338 87.1736 24.7957 87.1998 24.6781V13.1656C87.2128 12.9826 86.7032 12.4469 86.5725 12.3881C86.3242 12.277 85.893 12.3881 85.599 12.3423C85.0109 12.2509 84.7039 11.6367 84.926 11.0944C84.2465 11.4668 83.1162 11.0748 82.4758 11.2643C82.3452 11.3035 81.8486 11.8 81.8682 11.9895V24.7565C81.9074 24.9264 82.4105 25.3641 82.5543 25.4099C82.8156 25.4817 83.1684 25.3837 83.4624 25.4425C84.4556 25.6451 84.2726 27.1544 83.2468 27.1479L71.388 27.0825C70.8784 26.782 70.702 26.2135 71.094 25.73C71.5644 25.1551 72.0871 25.5863 72.5445 25.3772C72.649 25.3315 73.1456 24.7892 73.1718 24.6716V14.028C72.7536 13.3485 72.5445 12.3946 71.865 11.9634C70.7935 11.2839 69.9441 11.114 68.6634 11.2381C68.3956 11.2643 66.8079 11.9568 66.6118 12.1267C66.4746 12.2509 64.6648 14.9428 64.6321 15.1192V24.7434C64.6648 24.9133 65.1679 25.3511 65.3116 25.3968C65.5534 25.4687 65.8866 25.3772 66.1545 25.4164C67.1476 25.5667 67.1215 27.0107 66.0826 27.1348C64.2531 26.9714 62.0578 27.3504 60.2806 27.1348C59.588 27.0499 59.2352 26.3703 59.6272 25.7758C60.0519 25.1355 60.7184 25.5798 61.1823 25.3707C61.2868 25.3249 61.7834 24.7826 61.8095 24.665V13.1525C61.8226 12.9696 61.313 12.4338 61.1823 12.375C60.934 12.2639 60.5028 12.375 60.2087 12.3293C59.3332 12.192 59.196 11.029 60.0062 10.6501C60.5354 10.4018 62.9595 9.61774 63.5148 9.5328C63.7631 9.4936 64.0114 9.50667 64.2335 9.63734C64.3446 9.70268 64.6321 10.1012 64.6321 10.1796V11.9438C64.998 11.6236 65.194 11.029 65.5795 10.735C65.7233 10.6239 67.9839 9.54587 68.1277 9.51973C69.9898 9.22571 72.5249 9.83336 74.2172 10.6305C74.485 10.7546 74.5961 10.8592 74.7595 11.1074C75.0992 11.6171 75.9421 13.3747 75.9943 13.9431L76.0139 24.8088C76.0466 24.9264 76.5759 25.3641 76.6804 25.3968C76.8503 25.4491 78.1113 25.4491 78.3073 25.4099C78.5033 25.3707 79.0456 24.8218 79.0587 24.5932V12.0548C79.0587 11.8719 78.5556 11.3361 78.4249 11.2773C77.961 11.0682 76.8045 11.5125 76.7065 10.4802C76.6739 10.16 76.9744 9.5132 77.288 9.5132H79.0521L79.0587 9.51973ZM114.485 16.3345C114.263 15.57 114.041 14.7206 113.74 13.9888C113.609 13.6687 112.949 12.3293 112.76 12.1528C112.675 12.0744 111.179 11.2904 111.061 11.2643C110.721 11.1924 109.643 11.2054 109.271 11.2447C108.493 11.3231 106.736 12.375 106.298 13.0545C106.076 13.4073 105.377 15.5439 105.272 16.0208C105.246 16.1254 105.22 16.2299 105.24 16.3345H114.485ZM116.955 18.0528H105.24V20.4377C105.24 20.5422 106.109 22.1887 106.226 22.3521C106.487 22.718 108.173 24.3775 108.533 24.5932C109.937 25.4229 111.244 25.7562 112.793 25.0897C114.504 24.3579 114.622 23.685 115.857 22.5938C116.34 22.1691 117.138 21.653 117.699 22.2671C118.124 22.731 118.477 24.1489 118.876 24.5147C118.954 24.5866 120.47 25.3511 120.594 25.3837C120.999 25.4883 124.416 25.4948 124.847 25.4033C124.965 25.3772 126.546 24.5932 126.625 24.5147C126.919 24.2469 127.173 23.2799 127.454 22.9205C127.474 22.829 126.736 21.3328 126.625 21.2348C126.468 21.0911 124.958 20.3658 124.684 20.2743C123.26 19.7778 121.522 19.621 120.123 19.1179C119.274 18.8108 118.366 18.177 117.562 17.7588C117.477 17.7458 117.118 18.0332 116.948 18.0594L116.955 18.0528ZM5.15515 8.81409H1.4701V12.4926C5.15515 12.4861 8.8402 12.5057 12.5187 12.4926C12.5187 13.6948 12.5187 14.897 12.5187 16.0927H1.4701V19.7712H5.15515V23.4497H1.4701V27.1283H5.15515V23.4497H8.8402V27.1283H12.5252V16.1646H16.2103V27.1283H19.8953V23.4497H23.502C23.4759 23.5281 23.5804 23.6196 23.5804 23.6458V27.1283H27.187V23.4497H23.5804V19.7712H27.187V16.0927H16.2168V12.4926H27.187V8.81409H23.5804C23.5804 7.58574 23.5804 6.35739 23.5804 5.13557C24.7826 5.13557 25.9848 5.13557 27.187 5.13557V1.45705H23.6196C23.5412 1.51586 23.5347 1.52239 23.5347 1.61387C23.5347 2.78341 23.5804 3.96602 23.5804 5.13557C22.352 5.13557 21.1237 5.13557 19.8953 5.13557V1.45705H16.2103V12.3815C16.1384 12.4926 16.0535 12.4926 15.9424 12.5057C14.9754 12.6167 13.5576 12.4991 12.5318 12.5057C12.5383 8.82715 12.5252 5.1421 12.5318 1.46359H8.84673V5.1421H5.16168V1.45705H1.4701V5.13557H5.15515V8.81409ZM34.6225 10.6174L37.0204 9.52627L40.8361 9.53934C42.8877 10.3038 44.2729 11.5256 45.7168 13.1198L46.3767 14.2959C46.4943 13.9496 46.7034 13.5249 46.9256 13.2375C47.2849 12.7736 48.9968 11.0617 49.4541 10.7546C49.807 10.5194 51.5711 9.59161 51.9174 9.5328C52.3421 9.46093 54.3741 9.4544 54.7596 9.5524C55.1124 9.64388 57.0137 10.6501 57.3339 10.8918C57.8043 11.2512 59.477 12.9108 59.784 13.3747C59.967 13.6556 60.9797 15.6615 61.0189 15.9032C61.1169 16.5435 61.0973 20.4507 60.9275 20.9669C60.7902 21.4047 60.0193 22.9401 59.7579 23.3191C59.5423 23.6327 57.5234 25.5863 57.1771 25.8346C56.8308 26.0829 54.9883 27.0499 54.6158 27.1152C54.1323 27.1936 52.3878 27.1936 51.9108 27.1152C51.7214 27.0825 49.5979 26.011 49.4019 25.8607C48.9706 25.534 47.2523 23.8156 46.8798 23.3713C46.8014 23.2799 46.3833 22.2867 46.2853 22.3586C46.1611 22.6853 45.9455 23.1427 45.7364 23.4171C45.3901 23.8744 43.8024 25.4687 43.3451 25.8019C43.0772 25.9979 41.0778 27.0433 40.8034 27.0956C40.3918 27.1805 38.3598 27.1936 37.9743 27.0956C37.6345 27.0107 36.0338 26.1678 35.681 25.9456C35.2693 25.6843 34.9818 25.3249 34.6094 25.0244C34.3611 25.8019 34.9818 26.8277 33.9038 27.1021C33.3941 27.2328 30.944 27.2001 30.3298 27.1413C29.6307 27.076 29.1537 26.4487 29.5523 25.8084C29.9835 25.1159 30.6761 25.5928 31.153 25.3707C31.2576 25.3249 31.7541 24.7826 31.7803 24.665V5.17477C31.7934 4.99183 31.2837 4.45606 31.153 4.39725C30.7872 4.23391 30.2579 4.50179 29.8267 4.23391C29.1929 3.83535 29.3628 2.97289 29.977 2.67234C31.1269 2.48286 32.4729 1.68574 33.564 1.47666C34.2631 1.34598 34.6094 1.87522 34.6094 2.51553C34.6094 2.71807 34.5245 2.91409 34.5245 3.13624C34.5049 5.63214 34.5767 8.12151 34.6094 10.6174H34.6225ZM42.3585 24.4494C42.4369 24.3841 43.1883 23.5543 43.2275 23.4759C43.4169 23.1165 44.1814 20.8232 44.2467 20.4246C44.3317 19.8627 44.3513 16.6612 44.2271 16.1711C43.9266 15.0146 42.1821 12.9173 41.202 12.2247C39.3725 10.931 37.3471 10.8265 35.4915 12.1463C35.3673 12.2313 34.6682 12.9304 34.6421 13.0218V22.5415C34.6813 22.6657 36.3147 24.2926 36.5107 24.4298C37.5104 25.1355 39.1569 25.6451 40.3657 25.3968C40.5551 25.3576 42.2082 24.5736 42.3585 24.4494ZM50.5518 24.5344C51.166 24.7238 52.0023 25.3641 52.6034 25.4229C53.786 25.5406 54.9948 25.2531 55.9683 24.5474C56.576 24.1031 57.5626 21.1891 58.1179 20.4311L58.0983 16.1777L56.099 12.2247C55.9618 12.0614 54.5374 11.31 54.3153 11.2643C54.0082 11.1989 52.623 11.1989 52.3159 11.2643C52.2049 11.2904 50.6237 12.0614 50.5584 12.1267L48.5198 16.158V20.4311L50.5584 24.5409L50.5518 24.5344ZM137.706 26.8016C137.425 26.5598 137.013 26.0306 136.706 25.73C136.118 25.1616 135.334 24.7042 135.177 23.8091C135.118 23.4628 135.118 21.8163 135.19 21.4831C135.23 21.2936 136.249 19.2681 136.393 19.0786C136.536 18.8892 139.842 16.6285 140.11 16.5305L145.403 15.4001C145.475 15.2956 145.468 13.0414 145.422 12.7932C145.396 12.6821 144.684 11.2316 144.619 11.1662C144.534 11.0878 144.488 11.0944 144.39 11.0813C143.919 11.0225 141.946 11.029 141.548 11.1466C141.378 11.1989 140.012 11.9307 139.921 12.0287C139.509 12.6494 139.078 15.0342 138.621 15.4263C138.3 15.7072 137.026 15.7007 136.674 15.4981C136.151 15.2041 136.17 13.9235 136.419 13.4531C136.549 13.1982 138.555 11.1989 138.862 10.9637C139.117 10.7677 141.09 9.74188 141.352 9.68961C141.829 9.59161 144.508 9.59814 145.011 9.67655C145.605 9.76802 145.801 10.2254 146.147 10.5717C146.54 10.9572 147.892 12.081 147.997 12.4861L148.049 24.4102C148.186 24.8218 148.513 25.1551 148.95 25.2335C149.427 25.3119 150.95 25.3119 151.44 25.2531C151.819 25.2073 152.381 24.8937 152.498 24.5082L152.577 13.1525C152.59 12.8846 152.061 12.3227 151.851 12.2378C151.427 12.0679 150.95 12.3162 150.545 12.0548C150.015 11.7151 150.172 11.0682 150.695 10.8069C151.276 10.5129 153.407 9.83336 154.06 9.70921C154.53 9.61774 154.824 9.70268 155.046 10.1404L155.086 24.8218C155.118 24.9786 155.713 25.5144 155.844 25.5536C156.223 25.6647 156.732 25.4164 157.085 25.7235C157.575 26.1547 157.307 26.8734 156.693 26.9845H148.31C147.748 26.6382 145.788 25.9522 145.533 25.4425C145.435 25.2465 145.488 24.861 145.246 24.861C145.056 24.861 144.357 25.6386 144.135 25.7888C143.887 25.9587 142.005 26.9126 141.776 26.9584C141.234 27.0695 138.797 27.0433 138.189 26.978C138.039 26.9584 137.823 26.893 137.706 26.795V26.8016ZM145.442 22.5546V16.9944C145.442 16.9617 145.318 16.8637 145.252 16.8833L140.744 17.8634C139.019 19.3596 137.268 21.3916 137.778 23.8679C137.81 24.0312 138.529 25.4883 138.621 25.5275C139.437 25.534 140.437 25.6516 141.254 25.5732C141.94 25.5079 142.828 24.7565 143.521 24.554L145.442 22.5546ZM130.199 24.7108C130.12 25.0244 130.094 25.436 130.316 25.6908C130.414 25.8084 131.603 26.9322 131.688 26.9845C131.995 27.1675 132.335 27.1805 132.629 26.9845C132.792 26.88 133.805 25.8607 133.923 25.6908C134.171 25.338 134.249 24.9721 134.001 24.5932C133.884 24.4102 132.858 23.404 132.662 23.2668C132.4 23.0839 132.198 22.9858 131.858 23.0643C131.799 23.0773 131.799 23.1753 131.773 23.1884C131.224 23.4824 130.715 24.3057 130.199 24.7108ZM153.472 2.86835C152.701 2.59393 152.139 3.90722 151.525 4.20777C151.087 4.97876 151.721 5.25971 152.191 5.73014C152.596 6.14177 152.662 6.57954 153.407 6.48153C153.785 6.42926 154.269 5.70401 154.537 5.41652C154.805 5.12904 155.158 5.11597 155.086 4.56713C155.04 4.21431 154.093 3.42372 153.779 3.16237C153.668 3.0709 153.727 2.96636 153.472 2.87488V2.86835Z" fill="white"/>
<path d="M84.6646 8.11489C85.233 8.18676 85.8341 8.54612 86.2327 8.95121C87.559 8.60492 88.8462 7.7294 90.2183 8.36318C90.6756 8.57226 90.8324 8.93161 91.1722 9.21257C93.0147 8.89241 95.5302 7.03028 96.9023 9.14069C97.1049 9.17336 98.2809 8.45465 98.6011 8.33704C99.4374 8.02995 101.914 7.97768 102.73 8.3109C103.423 8.59186 104.272 9.61113 104.808 10.1469C104.998 9.97702 105.154 9.7614 105.37 9.61113C108.559 7.35044 112.015 7.64446 115.073 9.91168C115.354 10.1208 115.517 10.4801 115.935 10.4997C116.445 10.258 116.68 9.781 117.203 9.45432C119.424 8.05609 121.169 7.92541 123.776 8.10182C124.677 8.16716 127.657 9.09496 128.46 9.52619C130.283 10.5128 130.068 14.7924 127.356 14.8969C126.755 14.9166 126.03 14.3024 125.651 15.1518C125.318 15.9032 125.958 16.171 126.5 16.4977C127.258 16.9486 128.493 17.3733 129.062 18.0136C129.565 18.582 130.617 20.9407 130.767 21.7117C130.793 21.8489 130.793 21.9861 130.786 22.1233C131.682 21.4242 132.845 21.5679 133.687 22.2801C133.701 22.0384 133.661 21.7836 133.694 21.5418C133.785 20.8688 134.975 18.3598 135.452 17.896C135.752 17.6085 136.288 17.3079 136.667 17.1119C136.739 17.0008 136.092 16.8636 135.987 16.8179C134.491 16.0861 134.543 13.3615 135.491 12.2181C136.784 10.6565 138.594 9.19296 140.489 8.44158C141.365 8.09529 144.096 8.08222 145.082 8.1933C146.5 8.35664 147.108 9.51312 148.068 10.3821C148.297 10.5912 148.578 10.7545 148.774 11.0028C149.035 10.3233 149.323 9.82021 150.015 9.50005C150.708 9.1799 153.857 8.14103 154.498 8.18676C155.713 8.2717 156.451 9.1799 156.575 10.3429V24.0769C157.412 24.1292 158.248 24.5212 158.594 25.3118C159.202 26.71 158.418 28.2062 156.895 28.4284C154.295 28.8008 150.989 28.2259 148.317 28.4545C147.127 28.2193 146.121 27.4679 145.017 27.004C144.775 27.004 142.979 28.0756 142.521 28.2455C141.652 28.5656 139.097 28.5591 138.117 28.4676C136.628 28.3239 136.236 27.1216 135.138 26.3507C135.105 26.3507 134.975 26.6512 134.896 26.7362C133.563 28.1017 132.335 29.3627 130.473 27.8012C130.048 27.4418 129.519 26.8864 129.218 26.4291C128.055 27.3765 126.52 28.2912 125.03 28.546L1.52226 28.5329C0.934221 28.4088 0.470324 28.2977 0.235108 27.7032C-0.0327772 27.0236 -0.0131759 24.4624 0.0586957 23.6457C0.130567 22.829 0.496459 22.2017 1.39812 22.0841L1.46999 21.189C0.529127 21.0975 0.137101 20.4768 0.0652294 19.5817C0.00642545 18.8041 -0.0262434 16.2886 0.202439 15.6418C0.418053 15.0342 0.895019 14.8251 1.48306 14.7205V13.8319C0.895019 13.8319 0.398452 13.5053 0.202439 12.9499C-0.0327772 12.303 -0.000108315 9.78754 0.0586957 9.01002C0.137101 8.04955 0.529127 7.55299 1.47652 7.35697L1.43732 6.54025C0.607533 6.37037 0.16977 5.94568 0.0717632 5.08975C-0.0197096 4.27956 -0.0197096 2.31943 0.0717632 1.50271C0.176304 0.594516 0.685938 0.137152 1.59413 0.0522126C2.34552 -0.019659 5.06357 -0.0392603 5.68428 0.189422C6.25925 0.398503 6.44873 0.89507 6.5794 1.45044L7.47453 1.3851C7.566 0.46384 8.16711 0.11755 9.0361 0.0456788C9.82016 -0.0131252 12.4075 -0.0457941 13.0413 0.202489C13.6359 0.437705 13.7731 0.849333 13.9364 1.42431L14.812 1.41124C14.9034 0.483442 15.5307 0.111017 16.4062 0.0456788C17.1903 -0.0131252 19.7058 -0.0457941 20.3526 0.182888C20.908 0.378901 21.2281 0.875468 21.2347 1.45697H22.1233C22.2801 0.855867 22.4695 0.385435 23.1099 0.169821C23.7502 -0.0457941 26.3245 -0.0131252 27.0693 0.0522126C27.9906 0.130618 28.4479 0.54878 28.6048 1.45697C29.2451 1.54845 29.8527 1.27403 30.4538 1.09762C31.3293 0.842799 32.2179 0.437705 33.0739 0.195956C34.7204 -0.267942 35.9553 0.790529 35.9553 2.45011V8.44158C36.3015 8.31744 36.7328 8.16716 37.0921 8.12796C37.9807 8.04302 40.0258 8.03649 40.8948 8.16063C41.5351 8.2521 43.7631 9.35631 44.2989 9.77447C44.9523 10.2841 45.1221 10.8721 46.1022 10.9505C47.5658 11.0682 47.5658 10.454 48.5001 9.7418C50.3034 8.37624 52.3224 7.91234 54.5635 8.12796C55.7134 8.23903 57.5494 9.39551 58.4902 10.0816C58.8431 9.85941 59.0326 9.57192 59.4376 9.40205C60.0649 9.13416 63.175 8.12796 63.7303 8.12796C64.4164 8.12796 65.2854 8.53305 65.6186 9.15376C66.5007 8.85974 67.1932 8.25863 68.1406 8.15409C70.4732 7.88621 72.7208 8.47425 74.8378 9.40205C75.0795 9.50659 75.2429 9.60459 75.4454 9.77447C75.6153 8.67026 76.628 8.26517 77.6015 8.05609C77.6734 7.69673 77.7453 7.33084 77.8498 6.97801C78.562 4.67813 78.9736 2.7768 81.1886 1.46351C81.7048 1.15642 83.6649 0.195956 84.181 0.143685C85.1088 0.0522126 86.396 0.0587464 87.1082 0.738259C87.2389 0.862401 87.4414 1.26096 87.559 1.3067C87.9053 1.42431 88.4476 1.28056 88.9964 1.51578C89.4211 1.69872 91.0154 3.26683 91.2049 3.69153C91.5381 4.43638 91.4401 5.39684 90.9566 6.05675C90.7018 6.39651 89.3427 7.71633 88.9964 7.86007C87.1866 8.60492 86.1346 7.2851 85.037 6.10249C84.8932 5.94568 84.7626 5.47525 84.4489 5.59285C83.9328 5.78887 83.5734 7.61832 83.3578 8.13449C83.7694 8.1737 84.2529 8.08222 84.6515 8.13449L84.6646 8.11489ZM5.15504 5.13549V1.45697H1.46999V5.13549H5.15504V8.814H1.46999V12.4925C5.15504 12.486 8.84009 12.5056 12.5186 12.4925C12.5186 13.6947 12.5186 14.8969 12.5186 16.0926H1.46999V19.7711H5.15504V23.4497H1.46999V27.1282H5.15504V23.4497H8.84009V27.1282H12.5251V16.1645H16.2102V27.1282H19.8952V23.4497H23.5019C23.4757 23.5281 23.5803 23.6195 23.5803 23.6457V27.1282H27.1869V23.4497H23.5803V19.7711H27.1869V16.0926H16.2167V12.4925H27.1869V8.814H23.5803C23.5803 7.58566 23.5803 6.35731 23.5803 5.13549C24.7825 5.13549 25.9847 5.13549 27.1869 5.13549V1.45697H23.6195C23.5411 1.51578 23.5345 1.52231 23.5345 1.61378C23.5345 2.78333 23.5803 3.96594 23.5803 5.13549C22.3519 5.13549 21.1236 5.13549 19.8952 5.13549V1.45697H16.2102V12.3814C16.1383 12.4925 16.0534 12.4925 15.9423 12.5056C14.9753 12.6167 13.5575 12.4991 12.5317 12.5056C12.5382 8.82707 12.5251 5.14202 12.5317 1.46351H8.84662V5.14202H5.16157L5.15504 5.13549ZM34.6224 10.6173C34.5962 8.12142 34.5244 5.63206 34.5374 3.13615C34.5374 2.90747 34.6224 2.71799 34.6224 2.51545C34.6224 1.87514 34.2761 1.3459 33.577 1.47658C32.4858 1.68566 31.1399 2.48278 29.9899 2.67226C29.3692 2.97934 29.1993 3.8418 29.8396 4.23383C30.2709 4.50171 30.8001 4.23383 31.166 4.39717C31.2967 4.45598 31.7998 4.99175 31.7998 5.17469V24.6715C31.7736 24.7891 31.2705 25.3314 31.166 25.3771C30.689 25.5927 29.9965 25.1223 29.5652 25.8149C29.1667 26.4552 29.6371 27.0824 30.3427 27.1478C30.9569 27.2066 33.4071 27.2393 33.9167 27.1086C34.9883 26.8342 34.3741 25.8084 34.6224 25.0308C34.9948 25.3314 35.2823 25.6973 35.6939 25.9521C36.0467 26.1742 37.6475 27.0171 37.9873 27.102C38.3728 27.2001 40.4048 27.187 40.8164 27.102C41.0908 27.0432 43.0901 26.0044 43.358 25.8084C43.8154 25.4686 45.3966 23.8809 45.7494 23.4235C45.9585 23.1491 46.1741 22.6917 46.2982 22.3651C46.3962 22.2932 46.8144 23.2798 46.8928 23.3778C47.2652 23.8221 48.9836 25.5405 49.4148 25.8672C49.6108 26.0174 51.7343 27.089 51.9238 27.1216C52.4073 27.2 54.1453 27.2 54.6288 27.1216C55.0012 27.0563 56.8372 26.0958 57.19 25.841C57.5429 25.5862 59.5553 23.6457 59.7709 23.3255C60.0322 22.94 60.8032 21.4046 60.9404 20.9734C61.1103 20.4507 61.1299 16.5435 61.0319 15.9097C60.9927 15.6679 59.9865 13.6686 59.797 13.3811C59.4899 12.9172 57.8173 11.2511 57.3468 10.8983C57.0267 10.65 55.1188 9.65033 54.7725 9.55886C54.387 9.46085 52.355 9.46738 51.9303 9.53926C51.5841 9.59806 49.8199 10.5259 49.4671 10.7611C49.0032 11.0682 47.2979 12.7735 46.9385 13.2439C46.7164 13.5314 46.5073 13.9561 46.3897 14.3024L45.7298 13.1263C44.2858 11.5321 42.9007 10.3102 40.8491 9.54579L37.0333 9.53272L34.6354 10.6239L34.6224 10.6173ZM79.0586 9.51965H77.2945C76.9808 9.51965 76.6803 10.173 76.713 10.4867C76.811 11.5125 77.9674 11.0682 78.4313 11.2838C78.562 11.3426 79.0651 11.8783 79.0651 12.0613V24.5996C79.052 24.8283 78.5032 25.3771 78.3137 25.4163C78.1177 25.4555 76.8567 25.449 76.6868 25.4033C76.5823 25.3706 76.053 24.9328 76.0204 24.8152L76.0008 13.9496C75.9485 13.3811 75.1056 11.6235 74.7659 11.1139C74.6025 10.8656 74.4915 10.7611 74.2236 10.6369C72.5248 9.83981 69.9897 9.2387 68.1341 9.52619C67.9904 9.54579 65.7297 10.6239 65.5859 10.7415C65.207 11.0355 65.0044 11.6366 64.6385 11.9502V10.1861C64.6385 10.1077 64.351 9.70913 64.24 9.6438C64.0178 9.51312 63.7695 9.50005 63.5213 9.53926C62.9659 9.61766 60.5419 10.4082 60.0126 10.6565C59.2024 11.0355 59.3396 12.1985 60.2152 12.3357C60.5092 12.3814 60.9404 12.2704 61.1887 12.3814C61.3194 12.4403 61.8225 12.976 61.8225 13.159V24.6715C61.7963 24.7891 61.2932 25.3314 61.1887 25.3771C60.7248 25.5862 60.0584 25.1419 59.6337 25.7822C59.2416 26.3768 59.5945 27.0563 60.287 27.1412C62.0708 27.3569 64.2661 26.9779 66.089 27.1412C67.1214 27.0171 67.154 25.5731 66.1609 25.4229C65.893 25.3837 65.5663 25.4686 65.318 25.4033C65.1743 25.3641 64.6712 24.9263 64.6385 24.7499V15.1256C64.6712 14.9492 66.4811 12.2573 66.6183 12.1332C66.8077 11.9633 68.402 11.2707 68.6699 11.2446C69.9505 11.1204 70.7999 11.2903 71.8714 11.9698C72.5509 12.401 72.7665 13.355 73.1782 14.0345V24.678C73.1586 24.7956 72.662 25.3379 72.5575 25.3837C72.1001 25.5927 71.5774 25.1615 71.107 25.7365C70.7149 26.22 70.8979 26.7884 71.401 27.089L83.2598 27.1543C84.2856 27.1543 84.462 25.645 83.4754 25.449C83.1814 25.3902 82.8286 25.4882 82.5672 25.4163C82.4235 25.3771 81.9204 24.9394 81.8877 24.763V11.996C81.8681 11.813 82.3581 11.3099 82.4888 11.2707C83.1291 11.0812 84.266 11.4733 84.939 11.1008C84.7168 11.6431 85.0174 12.2573 85.6119 12.3488C85.906 12.3945 86.3372 12.2834 86.5855 12.3945C86.7162 12.4533 87.2193 12.9891 87.2193 13.172V24.6845C87.1931 24.8022 86.69 25.3445 86.5855 25.3902C86.1412 25.5927 85.5009 25.1811 85.0631 25.7496C84.6646 26.2723 84.8932 26.8995 85.4878 27.1151H97.5622C98.379 26.8472 98.3593 25.6189 97.5034 25.449C97.2094 25.3902 96.8566 25.4882 96.5952 25.4163C96.4515 25.3771 95.9484 24.9394 95.9157 24.763V15.1387C95.9484 14.9623 97.7648 12.2638 97.8954 12.1462C98 12.0482 99.5158 11.336 99.6269 11.3426C100.123 11.6366 101.051 11.9045 101.469 12.2442C101.914 12.6036 102.378 13.5706 103.077 13.5379C103.292 13.5314 103.39 13.3811 103.586 13.3746L102.338 15.8443L102.351 20.8296C102.384 20.9799 103.469 23.1883 103.586 23.3321C103.861 23.6979 105.847 25.6189 106.226 25.8802C106.919 26.3637 107.918 26.7035 108.663 27.1282L112.479 27.1412C112.708 27.102 114.844 26.0305 115.105 25.8541C115.334 25.6907 116.308 24.5669 116.399 24.5669C117.412 25.8541 118.771 26.416 120.195 27.1151H125.377C126.056 26.71 126.879 26.3964 127.546 25.9848C127.689 25.8933 127.892 25.7888 128.003 25.6646C128.179 25.4751 129.264 23.2733 129.336 22.9988C129.414 22.6917 129.401 21.973 129.336 21.6594C129.284 21.4111 128.101 19.0394 127.951 18.8891C127.729 18.6735 125.762 17.6607 125.396 17.5301C123.253 16.746 120.711 16.7983 118.804 15.3478L118.039 13.7927C118.039 13.7013 118.79 12.2312 118.875 12.1528C118.96 12.0744 120.6 11.2576 120.711 11.2446C121.149 11.1858 123.429 11.1858 123.815 11.2838C124.024 11.336 125.494 12.0874 125.69 12.2312C126.2 12.6101 126.624 13.6555 127.441 13.5053C128.258 13.355 128.291 12.1854 128.199 11.5321C128.134 11.0551 127.977 10.8591 127.559 10.6827C126.932 10.4148 124.671 9.61113 124.083 9.53926C123.423 9.46085 120.777 9.42818 120.189 9.54579C119.953 9.59152 117.915 10.6435 117.699 10.8199C117.098 11.3164 116.863 12.5513 116.406 13.2112L113.851 10.748C113.139 10.4932 112.244 9.79407 111.564 9.59153C111.146 9.46738 109.297 9.47392 108.8 9.53272C108.363 9.58499 106.507 10.5389 106.102 10.8329C105.344 11.3687 104.612 12.4599 103.861 13.061C103.73 13.0022 103.9 12.878 103.9 12.8649V11.3752C103.9 11.127 102.384 9.65686 102.103 9.57192L99.4701 9.53272C99.2741 9.55886 97.0657 10.6043 96.85 10.748C96.4972 10.9898 96.2881 11.6954 95.9092 11.9567V10.1926C95.9092 10.1142 95.6217 9.71567 95.5106 9.65033C95.2754 9.50659 94.9814 9.50659 94.7135 9.54579C94.2104 9.62419 91.7733 10.4344 91.2833 10.6631C90.4731 11.042 90.6103 12.205 91.4858 12.3422C91.7798 12.388 92.2111 12.2769 92.4593 12.388C92.4985 12.4076 93.0278 12.9368 93.0474 12.976L93.0866 24.678C93.0604 24.8087 92.5312 25.3706 92.4071 25.4098C92.2176 25.4686 90.8324 25.449 90.6626 25.3837C90.5907 25.351 90.1006 24.9459 90.0745 24.874L89.9961 10.1534C89.787 9.62419 89.4734 9.46085 88.905 9.53926L85.2526 10.7088C85.5009 10.3364 85.05 9.53272 84.6646 9.53272H81.8812V8.08222C81.8812 7.92541 82.8024 5.30537 82.9135 5.11589C82.9984 4.97215 84.266 3.69153 84.3705 3.66539C84.6384 3.61965 84.6972 3.93981 84.8606 4.09009C85.331 4.52132 85.9125 4.93294 86.3895 5.37724C86.7031 5.67126 87.3826 6.56639 87.7289 6.62519C88.6371 6.77547 88.9638 6.07635 89.4865 5.48831C89.5779 5.39031 89.7348 5.34457 89.8393 5.21389C90.2117 4.75 90.0484 4.39717 89.7282 3.99861C89.5387 3.7634 88.7743 2.98588 88.5521 2.82907C88.2973 2.64612 87.84 2.62652 87.5721 2.78333C87.3499 2.91401 86.677 3.69806 86.4613 3.93981C86.4287 3.97901 86.396 4.17502 86.2849 4.03782C86.2261 3.97248 86.4287 3.60659 86.4417 3.45631C86.5201 2.7964 86.5528 1.66606 85.7165 1.50924C85.5401 1.47658 84.4097 1.50924 84.2202 1.54845C84.0308 1.58765 82.0576 2.54811 81.8354 2.69186C81.5545 2.8748 80.5613 3.8418 80.3588 4.11622C80.1105 4.45598 79.039 7.64446 79.0194 8.08222C79.0063 8.2913 79.1435 9.44125 79.0716 9.51965H79.0586ZM137.706 26.8015C137.823 26.8995 138.039 26.9648 138.189 26.9844C138.797 27.0498 141.234 27.0759 141.776 26.9648C142.005 26.9191 143.88 25.9652 144.135 25.7953C144.357 25.645 145.056 24.8675 145.246 24.8675C145.487 24.8675 145.429 25.253 145.533 25.449C145.788 25.9586 147.748 26.6447 148.31 26.9779H156.693C157.307 26.8799 157.575 26.1612 157.085 25.73C156.732 25.4229 156.222 25.6711 155.844 25.5601C155.713 25.5209 155.112 24.9851 155.086 24.8283L155.046 10.1469C154.824 9.70913 154.53 9.62419 154.06 9.71567C153.406 9.83981 151.276 10.5193 150.695 10.8133C150.166 11.0812 150.009 11.7215 150.545 12.0613C150.95 12.3226 151.433 12.0678 151.851 12.2442C152.067 12.3292 152.59 12.8911 152.577 13.159L152.498 24.5147C152.381 24.8936 151.819 25.2072 151.44 25.2595C150.95 25.3183 149.421 25.3183 148.95 25.2399C148.513 25.168 148.186 24.8348 148.049 24.4167L147.996 12.4925C147.892 12.094 146.539 10.9636 146.147 10.5781C145.795 10.2318 145.605 9.77447 145.01 9.683C144.501 9.60459 141.822 9.59806 141.352 9.69606C141.09 9.74834 139.117 10.7741 138.862 10.9702C138.555 11.2054 136.549 13.2047 136.419 13.4595C136.177 13.93 136.151 15.2106 136.673 15.5046C137.033 15.7071 138.3 15.7071 138.62 15.4327C139.071 15.0407 139.503 12.6559 139.921 12.0352C140.006 11.9371 141.378 11.2054 141.548 11.1531C141.946 11.0355 143.919 11.029 144.39 11.0878C144.494 11.1008 144.534 11.0878 144.618 11.1727C144.684 11.2315 145.403 12.682 145.422 12.7996C145.474 13.0479 145.481 15.302 145.403 15.4066L140.11 16.5369C139.842 16.6349 136.536 18.9022 136.392 19.0851C136.249 19.268 135.229 21.3001 135.19 21.4895C135.118 21.8293 135.118 23.4693 135.177 23.8156C135.327 24.7107 136.118 25.168 136.706 25.7365C137.02 26.037 137.425 26.5728 137.706 26.808V26.8015ZM131.773 23.1883C131.224 23.4823 130.715 24.3056 130.198 24.7107C130.12 25.0243 130.094 25.4359 130.316 25.6907C130.414 25.8084 131.603 26.9322 131.688 26.9844C131.995 27.1674 132.335 27.1804 132.629 26.9844C132.792 26.8799 133.805 25.8606 133.923 25.6907C134.171 25.3379 134.249 24.972 134.001 24.5931C133.883 24.4101 132.858 23.4039 132.662 23.2667C132.4 23.0838 132.198 22.9858 131.858 23.0642C131.799 23.0772 131.799 23.1752 131.773 23.1883ZM150.486 3.12962C151.446 2.04501 152.655 0.888536 154.223 1.57458C154.654 1.76406 156.085 3.20803 156.301 3.64579C156.628 4.31223 156.634 4.89374 156.353 5.57979C156.196 5.95875 154.654 7.55952 154.275 7.73593C153.361 8.16063 152.27 7.99075 151.551 7.29164C151.289 7.03682 150.205 5.91954 150.107 5.68433C149.761 4.83494 149.872 3.8222 150.486 3.12962ZM153.779 3.15576C153.668 3.06428 153.727 2.95974 153.472 2.86827C152.701 2.59385 152.139 3.90714 151.525 4.20769C151.087 4.97868 151.721 5.25963 152.191 5.73006C152.596 6.14169 152.662 6.57945 153.406 6.48145C153.785 6.42918 154.269 5.70393 154.537 5.41644C154.805 5.12896 155.157 5.11589 155.086 4.56705C155.04 4.21423 154.092 3.42364 153.779 3.16229V3.15576ZM105.239 18.0528V20.4376C105.239 20.5421 106.108 22.1886 106.226 22.352C106.487 22.7179 108.173 24.3775 108.532 24.5931C109.937 25.4229 111.244 25.7561 112.792 25.0896C114.504 24.3579 114.622 23.6849 115.857 22.5937C116.34 22.169 117.137 21.6529 117.699 22.267C118.124 22.7309 118.477 24.1488 118.875 24.5147C118.954 24.5865 120.47 25.351 120.594 25.3837C120.999 25.4882 124.416 25.4947 124.847 25.4033C124.965 25.3771 126.546 24.5931 126.624 24.5147C126.918 24.2468 127.173 23.2798 127.454 22.9204C127.474 22.829 126.736 21.3327 126.624 21.2347C126.468 21.091 124.958 20.3657 124.684 20.2742C123.26 19.7777 121.522 19.6209 120.123 19.1178C119.274 18.8107 118.366 18.1769 117.562 17.7587C117.477 17.7457 117.118 18.0332 116.948 18.0593H105.233L105.239 18.0528ZM113.74 13.9888C113.609 13.6686 112.949 12.3292 112.76 12.1528C112.675 12.0744 111.179 11.2903 111.061 11.2642C110.721 11.1923 109.643 11.2054 109.271 11.2446C108.493 11.323 106.736 12.3749 106.298 13.0544C106.076 13.4072 105.377 15.5438 105.272 16.0208C105.246 16.1253 105.22 16.2298 105.239 16.3344H114.485C114.263 15.5699 114.04 14.7205 113.74 13.9888ZM43.2274 23.4758C43.4168 23.1164 44.1813 20.8231 44.2466 20.4245C44.3316 19.8626 44.3512 16.6611 44.227 16.171C43.9265 15.0146 42.1819 12.9172 41.2019 12.2246C39.3724 10.9309 37.347 10.8264 35.4914 12.1462C35.3672 12.2312 34.6681 12.9303 34.642 13.0218V22.5415C34.6812 22.6656 36.3146 24.2925 36.5106 24.4297C37.5103 25.1354 39.1568 25.645 40.3656 25.3967C40.555 25.3575 42.2081 24.5735 42.3584 24.4493C42.4368 24.384 43.1882 23.5542 43.2274 23.4758ZM52.6033 25.4163C53.7859 25.5339 54.9947 25.2465 55.9682 24.5408C56.5759 24.0965 57.5625 21.1824 58.1178 20.4245L58.0982 16.171L56.0989 12.2181C55.9617 12.0548 54.5373 11.3034 54.3152 11.2576C54.0081 11.1923 52.6229 11.1923 52.3158 11.2576C52.2048 11.2838 50.6236 12.0548 50.5582 12.1201L48.5197 16.1514V20.4245L50.5582 24.5343C51.1724 24.7237 52.0087 25.3641 52.6099 25.4229L52.6033 25.4163ZM145.442 17.0008C145.442 16.9682 145.318 16.8701 145.252 16.8898L140.744 17.8698C139.019 19.3661 137.268 21.3981 137.778 23.8744C137.81 24.0377 138.529 25.4947 138.62 25.5339C139.437 25.5405 140.437 25.6581 141.254 25.5797C141.94 25.5143 142.828 24.763 143.521 24.5604L145.442 22.5611V17.0008Z" fill="black"/>
</g>
<defs>
<clipPath id="clip0_7945_9991">
<rect width="158.797" height="28.5657" fill="white"/>
</clipPath>
</defs>
</svg>
